<?xml version="1.0" encoding="UTF-8" standalone="no"?>
<svg
   xmlns:dc="http://purl.org/dc/elements/1.1/"
   xmlns:cc="http://creativecommons.org/ns#"
   xmlns:rdf="http://www.w3.org/1999/02/22-rdf-syntax-ns#"
   xmlns:svg="http://www.w3.org/2000/svg"
   xmlns="http://www.w3.org/2000/svg"
   xmlns:sodipodi="http://sodipodi.sourceforge.net/DTD/sodipodi-0.dtd"
   xmlns:inkscape="http://www.inkscape.org/namespaces/inkscape"
   width="210mm"
   height="297mm"
   viewBox="0 0 210 297"
   version="1.1"
   id="svg8"
   inkscape:version="1.0.2 (e86c870879, 2021-01-15, custom)"
   sodipodi:docname="рисунок.svg">
  <defs
     id="defs2" />
  <sodipodi:namedview
     id="base"
     pagecolor="#ffffff"
     bordercolor="#666666"
     borderopacity="1.0"
     inkscape:pageopacity="0.0"
     inkscape:pageshadow="2"
     inkscape:zoom="0.35"
     inkscape:cx="327.44237"
     inkscape:cy="421.94465"
     inkscape:document-units="mm"
     inkscape:current-layer="layer1-2"
     inkscape:document-rotation="0"
     showgrid="false"
     inkscape:window-width="1366"
     inkscape:window-height="715"
     inkscape:window-x="-8"
     inkscape:window-y="22"
     inkscape:window-maximized="1" />
  <metadata
     id="metadata5">
    <rdf:RDF>
      <cc:Work
         rdf:about="">
        <dc:format>image/svg+xml</dc:format>
        <dc:type
           rdf:resource="http://purl.org/dc/dcmitype/StillImage" />
        <dc:title />
      </cc:Work>
    </rdf:RDF>
  </metadata>
  <g
     inkscape:label="Слой 1"
     inkscape:groupmode="layer"
     id="layer1">
    <g
       inkscape:label="Слой 1"
       id="layer1-2"
       transform="translate(0.23707875,-3.5497889)">
      <rect
         style="fill:#6200ee;fill-opacity:1;fill-rule:evenodd;stroke-width:0.264583"
         id="rect12"
         width="192"
         height="192"
         x="10.583333"
         y="52.916664"
         inkscape:export-xdpi="25.340864"
         inkscape:export-ydpi="25.340864" />
      <path
         id="path844"
         style="fill:#333333;fill-opacity:1;stroke-width:0.629853"
         inkscape:transform-center-x="-6.9695839"
         inkscape:transform-center-y="-29.282089"
         d="M 10.58349,52.917009 V 244.91666 h 191.99984 l -96.00018,-96.00008 z"
         inkscape:export-xdpi="25.340864"
         inkscape:export-ydpi="25.340864" />
      <path
         id="rect923"
         style="fill:#ffffff;fill-opacity:1;stroke-width:0.147695"
         d="m 80.87751,118.40313 a 4.8526796,4.7077592 0 0 0 -4.852779,4.70789 4.8526796,4.7077592 0 0 0 1.555904,3.45394 l 23.489955,23.25632 -23.429227,23.02764 a 4.7467028,4.8129942 0.46759874 0 0 -1.616632,3.59194 4.7467028,4.8129942 0.46759874 0 0 4.720383,4.83846 4.7467028,4.8129942 0.46759874 0 0 3.490858,-1.52424 l 23.620338,-23.21554 23.26231,23.03107 a 4.8526796,4.7077592 0 0 0 0.57246,0.5671 l 0.2996,0.29652 0.0385,-0.0382 a 4.8526796,4.7077592 0 0 0 2.83006,0.88358 4.8526796,4.7077592 0 0 0 4.85277,-4.7076 4.8526796,4.7077592 0 0 0 -0.98517,-2.84321 l 0.0311,-0.0308 -24.0915,-23.85221 23.30231,-22.90305 a 4.7467028,4.8129942 0.46759874 0 0 0.57476,-0.56482 l 0.30076,-0.29539 -0.0383,-0.0385 a 4.7467028,4.8129942 0.46759874 0 0 0.90603,-2.80215 4.7467028,4.8129942 0.46759874 0 0 -4.7201,-4.83847 4.7467028,4.8129942 0.46759874 0 0 -2.87206,0.96171 l -0.0309,-0.0311 -24.20835,23.79376 -23.373099,-23.14084 a 4.8526796,4.7077592 0 0 0 -3.630156,-1.58384 z"
         inkscape:export-xdpi="25.340864"
         inkscape:export-ydpi="25.340864" />
      <text
         xml:space="preserve"
         style="font-style:normal;font-weight:normal;font-size:32.6948px;line-height:1.25;font-family:sans-serif;fill:#000000;fill-opacity:1;stroke:#ffffff;stroke-width:0.817371;stroke-opacity:1"
         x="139.7878"
         y="131.75845"
         id="text26"
         transform="scale(1.0433237,0.9584753)"
         inkscape:export-xdpi="25.340864"
         inkscape:export-ydpi="25.340864"><tspan
           sodipodi:role="line"
           id="tspan24"
           x="139.7878"
           y="131.75845"
           style="font-style:normal;font-variant:normal;font-weight:normal;font-stretch:normal;font-family:Comfortaa;-inkscape-font-specification:Comfortaa;fill:#ffffff;stroke:#ffffff;stroke-width:0.817371;stroke-opacity:1"
           rotate="0 0">2</tspan></text>
    </g>
  </g>
</svg>
